<svg width="30" height="30" viewBox="0 0 30 30" fill="none" xmlns="http://www.w3.org/2000/svg">
<path d="M12.1622 0C18.8791 0 24.3244 5.44518 24.3244 12.1622C24.3244 14.9353 23.3961 17.4918 21.8335 19.5378L29.5251 27.2317C30.1583 27.865 30.1583 28.8918 29.5251 29.525C28.9405 30.1096 28.0207 30.1545 27.3845 29.66L27.2318 29.525L19.5378 21.8335C17.4918 23.3961 14.9353 24.3243 12.1622 24.3243C5.44519 24.3243 0 18.8791 0 12.1622C0 5.44518 5.44519 0 12.1622 0ZM12.1622 3.24324C7.23638 3.24324 3.24325 7.23637 3.24325 12.1622C3.24325 17.088 7.23638 21.0811 12.1622 21.0811C17.088 21.0811 21.0811 17.088 21.0811 12.1622C21.0811 7.23637 17.088 3.24324 12.1622 3.24324Z" fill="#212121"/>
</svg>
